PathFileType	4	(x/y/z)	S01_M20_T10.trc
DataRate	CameraRate	NumFrames	NumMarkers	Units	OrigDataRate	OrigDataStartFrame	OrigNumFrames
240	240	8	51	mm	240	105	419
Frame#	Time	Sternum			R.Acromium			L.Acromium			Top.Head			R.ASIS			L.ASIS			R.PSIS			L.PSIS			R.Great.Tro			L.Great.Tro			R.Iliac.Crest			L.Iliac.Crest			V.Sacral			R.Thigh.Upper.Post			R.Thigh.Lower.Ant			R.Thigh.Lower.Post			R.Thigh.Upper.Ant			R.Knee.Lat			R.Knee.Med			R.Shank.Upper.Post			R.Shank.Lower.Ant			R.Shank.Lower.Post			R.Shank.Upper.Ant			R.Ankle.Lat			R.Ankle.Med			R.Heel.Upper			R.Heel.Med			R.Heel.Lat			R.Toe.Lat			R.Toe.Med			R.Toe.Tip			L.Thigh.Upper.Post			L.Thigh.Lower.Ant			L.Thigh.Lower.Post			L.Thigh.Upper.Ant			L.Knee.Lat			L.Knee.Med			L.Shank.Upper.Post			L.Shank.Lower.Ant			L.Shank.Lower.Post			L.Shank.Upper.Ant			L.Ankle.Lat			L.Ankle.Med			L.Heel.Upper			L.Heel.Med			L.Heel.Lat			L.Toe.Lat			L.Toe.Med			L.Toe.Tip			Cervical.Spine			Back			
		X1	Y1	Z1	X2	Y2	Z2	X3	Y3	Z3	X4	Y4	Z4	X5	Y5	Z5	X6	Y6	Z6	X7	Y7	Z7	X8	Y8	Z8	X9	Y9	Z9	X10	Y10	Z10	X11	Y11	Z11	X12	Y12	Z12	X13	Y13	Z13	X14	Y14	Z14	X15	Y15	Z15	X16	Y16	Z16	X17	Y17	Z17	X18	Y18	Z18	X19	Y19	Z19	X20	Y20	Z20	X21	Y21	Z21	X22	Y22	Z22	X23	Y23	Z23	X24	Y24	Z24	X25	Y25	Z25	X26	Y26	Z26	X27	Y27	Z27	X28	Y28	Z28	X29	Y29	Z29	X30	Y30	Z30	X31	Y31	Z31	X32	Y32	Z32	X33	Y33	Z33	X34	Y34	Z34	X35	Y35	Z35	X36	Y36	Z36	X37	Y37	Z37	X38	Y38	Z38	X39	Y39	Z39	X40	Y40	Z40	X41	Y41	Z41	X42	Y42	Z42	X43	Y43	Z43	X44	Y44	Z44	X45	Y45	Z45	X46	Y46	Z46	X47	Y47	Z47	X48	Y48	Z48	X49	Y49	Z49	X50	Y50	Z50	X51	Y51	Z51	

105	0.43333	-654.89	1236.3	253	-763.26	1481.4	438.23	-796.4	1506.6	112.27	-736.78	1810.9	275.53	-693.74	985.02	401.76	-706.95	979.77	134.03	-936.64	1025	330.41	-946.66	1031	228.25	-759.05	934.81	492.4	-831.7	942.89	66.474	-777.53	1080	476.3	-823.98	1064.2	69.928	-957.01	993.33	276.43	-650.65	650.06	459.56	-559.96	616.68	422.27	-612.19	572.55	434	-596.07	696.76	446.53	-563.84	530.22	427.45	-575.3	529.28	281.6	-568.98	362.91	447.46	-488.29	301.36	403.22	-553.06	294.53	435.9	-508.26	370.2	420.59	-493.33	103.08	401.03	-464.32	115.43	307.55	-551.9	60.21	340.27	-528.46	34.844	312.4	-533.86	34.681	377.16	-351.87	71.872	437.19	-320.45	84.508	314.53	-268.29	123.69	369.27	-952.68	695.81	99.63	-893.35	601.32	87.458	-969.29	606.86	113.35	-885.83	695.84	72.432	-958.7	511.38	95.44	-916.42	496.65	234.47	-1077.1	414.01	86.139	-1065.8	305.27	105.76	-1115.8	345.44	91.624	-1026.5	372.79	94.974	-1229.5	154.58	134.15	-1195.5	158.78	229.77	-1307.4	152.6	184.28	-1302.2	126.74	218.22	-1309.1	124.06	156.77	-1120	40.522	117.85	-1091.6	45.428	239.6	-1029.4	43.139	186.73	-864.05	1551.1	286.13	-956.06	1240.4	296.82
106	0.4375	-648.33	1236.5	253.75	-756.8	1481.1	439.7	-790.46	1506.9	113.75	-730.86	1811	277.4	-686.81	985.24	402.29	-700.31	979.74	134.58	-929.93	1025.1	331.04	-939.92	1030.7	228.85	-752.02	935.23	492.88	-825.09	942.41	67.026	-770.48	1080	477.08	-817.13	1064.4	70.616	-950.19	993.18	277.13	-644.1	650.34	459.78	-553.45	616.84	422.51	-605.73	572.78	434.23	-589.41	696.96	446.92	-557.34	530.33	427.63	-569.36	529.56	281.94	-563.69	362.94	447.72	-483.78	300.63	403.18	-548.45	294.42	436.14	-503.03	369.66	420.59	-491.21	102.59	401.16	-462.07	114.48	307.61	-550.77	61.058	340.38	-527.87	35.231	312.46	-533.23	35.134	377.23	-350.38	68.702	437.08	-318.73	80.927	314.41	-265.68	118.91	369.15	-945.44	695.06	99.991	-885.92	600.8	87.178	-961.78	606.03	113.47	-878.54	695.34	72.58	-951.11	510.75	95.101	-908.19	495.59	233.91	-1070.5	414.97	85.892	-1060.7	306.09	105.26	-1110.1	346.94	91.386	-1020.5	373.04	94.574	-1226	157.34	133.66	-1191.9	161.08	229.25	-1303.8	157.25	183.92	-1299.2	131.57	218.01	-1306.3	128.71	156.62	-1119.6	40.8	117.82	-1091.3	45.696	239.64	-1029.2	42.649	186.68	-857.88	1551	287.87	-949.55	1240.2	297.95
107	0.44167	-641.79	1236.9	254.52	-750.35	1480.8	441.17	-784.5	1507.3	115.24	-724.92	1811.2	279.28	-679.9	985.58	402.85	-693.67	979.79	135.17	-923.25	1025.3	331.64	-933.18	1030.5	229.41	-745.07	935.79	493.39	-818.42	941.95	67.584	-763.48	1080.2	477.86	-810.23	1064.7	71.31	-943.38	993.1	277.79	-637.53	650.72	460.06	-546.9	617.14	422.83	-599.24	573.14	434.53	-582.75	697.28	447.37	-550.82	530.53	427.85	-563.32	529.98	282.33	-558.42	363.08	448.06	-479.32	299.99	403.18	-543.89	294.4	436.44	-497.83	369.21	420.65	-489.18	102.18	401.33	-459.92	113.67	307.72	-549.7	61.916	340.52	-527.31	35.674	312.53	-532.65	35.612	377.3	-349.01	65.678	437.01	-317.14	77.518	314.33	-263.24	114.31	369.07	-938.05	694.26	100.33	-878.3	600.28	86.863	-954.07	605.15	113.55	-871.11	694.85	72.711	-943.28	510.1	94.705	-899.71	494.49	233.28	-1063.6	415.96	85.609	-1055.2	306.95	104.75	-1104.1	348.49	91.126	-1014.3	373.3	94.142	-1222.3	160.21	133.15	-1188	163.44	228.72	-1299.8	162.08	183.57	-1295.8	136.6	217.81	-1303.2	133.58	156.48	-1119.1	41.139	117.81	-1090.9	46.012	239.67	-1029	42.117	186.62	-851.7	1551.1	289.6	-943.05	1240.1	299.06
108	0.44583	-635.25	1237.3	255.29	-743.89	1480.6	442.64	-778.53	1507.8	116.73	-718.97	1811.4	281.17	-673.03	986.01	403.46	-687.01	979.91	135.81	-916.6	1025.5	332.18	-926.43	1030.4	229.92	-738.22	936.45	493.9	-811.71	941.51	68.147	-756.56	1080.4	478.62	-803.27	1065.1	72.009	-936.59	993.09	278.4	-630.95	651.21	460.42	-540.35	617.56	423.21	-592.72	573.6	434.9	-576.08	697.71	447.89	-544.3	530.81	428.11	-557.2	530.52	282.76	-553.19	363.29	448.46	-474.93	299.42	403.24	-539.38	294.48	436.79	-492.67	368.82	420.76	-487.25	101.84	401.51	-457.89	112.96	307.84	-548.68	62.771	340.67	-526.78	36.158	312.63	-532.09	36.103	377.4	-347.74	62.81	436.95	-315.66	74.29	314.27	-260.95	109.91	369.01	-930.51	693.41	100.64	-870.49	599.75	86.511	-946.17	604.22	113.58	-863.52	694.34	72.824	-935.21	509.42	94.249	-890.98	493.34	232.58	-1056.5	416.95	85.29	-1049.6	307.83	104.2	-1097.9	350.06	90.843	-1007.9	373.55	93.676	-1218.3	163.18	132.64	-1183.9	165.88	228.17	-1295.5	167.09	183.22	-1292.2	141.83	217.62	-1299.8	138.65	156.35	-1118.6	41.55	117.79	-1090.5	46.384	239.7	-1028.7	41.543	186.55	-845.51	1551.2	291.32	-936.57	1240.1	300.16
109	0.45	-628.73	1237.8	256.08	-737.44	1480.5	444.1	-772.53	1508.4	118.23	-713	1811.7	283.06	-666.21	986.55	404.11	-680.36	980.1	136.5	-909.99	1025.9	332.68	-919.69	1030.4	230.38	-731.45	937.23	494.43	-804.95	941.09	68.718	-749.71	1080.8	479.36	-796.27	1065.5	72.713	-929.82	993.15	278.97	-624.37	651.77	460.85	-533.78	618.07	423.65	-586.19	574.15	435.32	-569.43	698.23	448.46	-537.79	531.15	428.41	-550.99	531.16	283.23	-548.02	363.58	448.91	-470.62	298.92	403.33	-534.94	294.62	437.2	-487.58	368.5	420.91	-485.42	101.57	401.7	-455.97	112.36	307.99	-547.71	63.613	340.85	-526.27	36.67	312.75	-531.58	36.598	377.51	-346.57	60.104	436.92	-314.3	71.243	314.22	-258.83	105.72	368.97	-922.82	692.51	100.92	-862.49	599.21	86.121	-938.08	603.23	113.55	-855.79	693.84	72.917	-926.9	508.7	93.731	-881.99	492.15	231.81	-1049.1	417.95	84.931	-1043.7	308.73	103.63	-1091.5	351.67	90.537	-1001.3	373.81	93.171	-1214.1	166.27	132.12	-1179.5	168.39	227.61	-1290.8	172.3	182.89	-1288.2	147.27	217.44	-1296.1	143.94	156.22	-1118	42.047	117.79	-1090	46.818	239.71	-1028.4	40.924	186.48	-839.31	1551.4	293.04	-930.09	1240.2	301.24
110	0.45417	-622.24	1238.3	256.88	-731	1480.4	445.55	-766.52	1509.1	119.73	-707.03	1812.1	284.95	-659.43	987.18	404.81	-673.72	980.35	137.24	-903.41	1026.3	333.12	-912.96	1030.4	230.79	-724.78	938.09	494.96	-798.15	940.7	69.297	-742.95	1081.2	480.09	-789.23	1066	73.421	-923.08	993.28	279.48	-617.81	652.39	461.34	-527.24	618.66	424.15	-579.67	574.77	435.79	-562.81	698.81	449.09	-531.32	531.54	428.73	-544.71	531.87	283.74	-542.92	363.91	449.4	-466.41	298.47	403.47	-530.59	294.82	437.63	-482.57	368.22	421.11	-483.7	101.35	401.91	-454.16	111.85	308.16	-546.79	64.431	341.04	-525.79	37.2	312.87	-531.09	37.088	377.63	-345.5	57.564	436.9	-313.05	68.378	314.18	-256.87	101.74	368.93	-914.99	691.56	101.16	-854.31	598.67	85.693	-929.81	602.18	113.48	-847.93	693.33	72.985	-918.34	507.95	93.152	-872.75	490.92	230.97	-1041.4	418.96	84.532	-1037.6	309.65	103.04	-1084.7	353.31	90.208	-994.35	374.06	92.628	-1209.6	169.47	131.6	-1174.9	170.97	227.04	-1285.8	177.69	182.56	-1283.9	152.92	217.27	-1292.1	149.44	156.11	-1117.3	42.645	117.79	-1089.5	47.322	239.71	-1028.1	40.261	186.4	-833.12	1551.6	294.75	-923.62	1240.4	302.31
111	0.45833	-615.77	1238.9	257.7	-724.57	1480.5	446.99	-760.49	1509.8	121.24	-701.06	1812.5	286.83	-652.7	987.91	405.54	-667.08	980.67	138.02	-896.87	1026.7	333.51	-906.24	1030.5	231.14	-718.19	939.04	495.5	-791.31	940.32	69.888	-736.3	1081.8	480.79	-782.16	1066.6	74.133	-916.37	993.47	279.95	-611.29	653.05	461.88	-520.73	619.3	424.69	-573.19	575.44	436.32	-556.23	699.44	449.75	-524.91	531.94	429.08	-538.38	532.63	284.29	-537.9	364.27	449.93	-462.29	298.05	403.63	-526.33	295.06	438.1	-477.65	367.97	421.35	-482.07	101.18	402.12	-452.46	111.41	308.33	-545.92	65.218	341.23	-525.34	37.736	313.01	-530.64	37.566	377.77	-344.51	55.194	436.89	-311.92	65.692	314.15	-255.06	97.985	368.89	-907.03	690.55	101.36	-845.93	598.11	85.225	-921.34	601.07	113.34	-839.94	692.82	73.029	-909.54	507.17	92.514	-863.26	489.64	230.06	-1033.5	419.96	84.093	-1031.2	310.59	102.42	-1077.7	354.96	89.856	-987.18	374.32	92.045	-1204.8	172.79	131.07	-1170	173.62	226.45	-1280.4	183.27	182.25	-1279.3	158.76	217.11	-1287.7	155.15	156	-1116.5	43.359	117.79	-1088.8	47.905	239.7	-1027.8	39.556	186.3	-826.94	1551.9	296.45	-917.17	1240.7	303.36
112	0.4625	-609.33	1239.6	258.52	-718.15	1480.6	448.42	-754.44	1510.7	122.75	-695.08	1813	288.72	-646.03	988.73	406.31	-660.46	981.04	138.85	-890.37	1027.3	333.86	-899.53	1030.6	231.46	-711.69	940.04	496.05	-784.45	939.96	70.493	-729.76	1082.4	481.47	-775.06	1067.3	74.848	-909.7	993.72	280.36	-604.83	653.73	462.47	-514.28	619.94	425.29	-566.77	576.12	436.87	-549.71	700.09	450.46	-518.6	532.34	429.45	-532.02	533.41	284.86	-532.98	364.65	450.48	-458.28	297.66	403.81	-522.17	295.33	438.58	-472.83	367.73	421.61	-480.55	101.04	402.33	-450.88	111.03	308.51	-545.11	65.968	341.44	-524.92	38.27	313.15	-530.21	38.027	377.9	-343.6	52.993	436.89	-310.89	63.179	314.13	-253.4	94.444	368.85	-898.93	689.5	101.52	-837.37	597.55	84.72	-912.69	599.91	113.16	-831.85	692.3	73.047	-900.49	506.35	91.82	-853.51	488.32	229.08	-1025.2	420.97	83.616	-1024.5	311.54	101.78	-1070.4	356.64	89.483	-979.75	374.58	91.424	-1199.7	176.23	130.55	-1164.8	176.36	225.86	-1274.7	189.03	181.94	-1274.3	164.8	216.97	-1283	161.07	155.89	-1115.7	44.206	117.79	-1088	48.576	239.68	-1027.4	38.811	186.18	-820.75	1552.3	298.14	-910.73	1241	304.38
